<svg xmlns="http://www.w3.org/2000/svg" viewBox="0 0 1200 600" width="1200" height="600">
  <defs>
    <linearGradient id="bg" x1="0%" y1="0%" x2="100%" y2="100%">
      <stop offset="0%" style="stop-color:#08070f"/>
      <stop offset="100%" style="stop-color:#0e0c1a"/>
    </linearGradient>
    <linearGradient id="gold1" x1="0%" y1="0%" x2="100%" y2="100%">
      <stop offset="0%" style="stop-color:#d4af37"/>
      <stop offset="100%" style="stop-color:#b8860b"/>
    </linearGradient>
    <linearGradient id="goldcard" x1="0%" y1="0%" x2="100%" y2="100%">
      <stop offset="0%" style="stop-color:#1a1508"/>
      <stop offset="100%" style="stop-color:#120f04"/>
    </linearGradient>
    <linearGradient id="featured" x1="0%" y1="0%" x2="100%" y2="100%">
      <stop offset="0%" style="stop-color:#1c1a0a"/>
      <stop offset="100%" style="stop-color:#15120a"/>
    </linearGradient>
    <linearGradient id="btn" x1="0%" y1="0%" x2="100%" y2="0%">
      <stop offset="0%" style="stop-color:#b8860b"/>
      <stop offset="100%" style="stop-color:#d4af37"/>
    </linearGradient>
    <linearGradient id="violet" x1="0%" y1="0%" x2="100%" y2="0%">
      <stop offset="0%" style="stop-color:#6366f1"/>
      <stop offset="100%" style="stop-color:#8b5cf6"/>
    </linearGradient>
    <filter id="sh">
      <feDropShadow dx="0" dy="6" stdDeviation="14" flood-color="#000" flood-opacity="0.6"/>
    </filter>
    <filter id="glow">
      <feGaussianBlur in="SourceGraphic" stdDeviation="3" result="blur"/>
      <feMerge><feMergeNode in="blur"/><feMergeNode in="SourceGraphic"/></feMerge>
    </filter>
  </defs>

  <rect width="1200" height="600" fill="url(#bg)"/>
  <defs>
    <pattern id="grid" width="30" height="30" patternUnits="userSpaceOnUse">
      <path d="M 30 0 L 0 0 0 30" fill="none" stroke="#fff" stroke-width="0.2" stroke-opacity="0.03"/>
    </pattern>
  </defs>
  <rect width="1200" height="600" fill="url(#grid)"/>
  <ellipse cx="900" cy="250" rx="200" ry="120" fill="#d4af37" opacity="0.03"/>

  <!-- Window -->
  <rect x="55" y="20" width="1090" height="560" rx="12" fill="#0a0910" stroke="#1e1a2e" stroke-width="1" filter="url(#sh)"/>

  <!-- Chrome -->
  <rect x="55" y="20" width="1090" height="38" rx="12" fill="#0f0d1c"/>
  <rect x="55" y="46" width="1090" height="12" fill="#0f0d1c"/>
  <circle cx="81" cy="39" r="5.5" fill="#ff5f57"/>
  <circle cx="99" cy="39" r="5.5" fill="#febc2e"/>
  <circle cx="117" cy="39" r="5.5" fill="#28c840"/>
  <rect x="173" y="28" width="420" height="18" rx="9" fill="#1a1530"/>
  <text x="189" y="41" fill="#4a3f5e" font-size="9" font-family="system-ui">🔒  aurajewels.in/collections</text>
  <rect x="1060" y="28" width="72" height="18" rx="9" fill="#1a1530"/>
  <text x="1096" y="41" fill="#d4af37" font-size="10" text-anchor="middle">🛒 2</text>

  <!-- Nav bar -->
  <rect x="55" y="58" width="1090" height="46" fill="#0c0a18" stroke="#1a1530" stroke-width="0.5"/>
  <text x="80" y="80" fill="#d4af37" font-size="13" font-weight="800" font-family="Georgia, serif">✦ AURA</text>
  <text x="130" y="80" fill="#e2e8f0" font-size="13" font-weight="600" font-family="Georgia, serif">JEWELS</text>
  <text x="310" y="84" fill="#94a3b8" font-size="11" font-family="system-ui">Collections</text>
  <text x="400" y="84" fill="#94a3b8" font-size="11" font-family="system-ui">Bridal</text>
  <text x="455" y="84" fill="#94a3b8" font-size="11" font-family="system-ui">Gold</text>
  <text x="500" y="84" fill="#94a3b8" font-size="11" font-family="system-ui">Diamonds</text>
  <text x="582" y="84" fill="#94a3b8" font-size="11" font-family="system-ui">Silver</text>
  <text x="630" y="84" fill="#94a3b8" font-size="11" font-family="system-ui">Custom</text>
  <rect x="1020" y="68" width="112" height="24" rx="6" fill="#1a1508" stroke="#d4af37" stroke-opacity="0.4" stroke-width="1"/>
  <text x="1076" y="84" fill="#d4af37" font-size="10" font-weight="600" font-family="system-ui" text-anchor="middle">BIS Hallmarked ✓</text>

  <!-- Left filter sidebar -->
  <rect x="55" y="104" width="200" height="476" fill="#0a0910" stroke="#1e1a2e" stroke-width="0.5"/>
  <text x="74" y="128" fill="#94a3b8" font-size="10" font-weight="600" font-family="system-ui" letter-spacing="1">FILTER BY</text>

  <!-- Category filter -->
  <text x="74" y="150" fill="#e2e8f0" font-size="11" font-weight="600" font-family="system-ui">Category</text>
  <rect x="74" y="158" width="162" height="24" rx="6" fill="#1a1508" stroke="#d4af37" stroke-opacity="0.4" stroke-width="1"/>
  <text x="84" y="174" fill="#d4af37" font-size="10" font-family="system-ui">● Rings</text>
  <rect x="74" y="186" width="162" height="24" rx="6" fill="transparent"/>
  <text x="84" y="202" fill="#475569" font-size="10" font-family="system-ui">○ Necklaces</text>
  <rect x="74" y="214" width="162" height="24" rx="6" fill="transparent"/>
  <text x="84" y="230" fill="#475569" font-size="10" font-family="system-ui">○ Earrings</text>
  <rect x="74" y="242" width="162" height="24" rx="6" fill="transparent"/>
  <text x="84" y="258" fill="#475569" font-size="10" font-family="system-ui">○ Bracelets</text>
  <rect x="74" y="270" width="162" height="24" rx="6" fill="transparent"/>
  <text x="84" y="286" fill="#475569" font-size="10" font-family="system-ui">○ Bangles</text>

  <line x1="64" y1="304" x2="244" y2="304" stroke="#1e1a2e" stroke-width="1"/>

  <!-- Metal filter -->
  <text x="74" y="322" fill="#e2e8f0" font-size="11" font-weight="600" font-family="system-ui">Metal</text>
  <rect x="74" y="330" width="70" height="26" rx="8" fill="#1a1508" stroke="#d4af37" stroke-opacity="0.5" stroke-width="1"/>
  <text x="109" y="347" fill="#d4af37" font-size="10" font-weight="600" font-family="system-ui" text-anchor="middle">22K Gold</text>
  <rect x="152" y="330" width="84" height="26" rx="8" fill="#160e20" stroke="#8b5cf6" stroke-opacity="0.4" stroke-width="1"/>
  <text x="194" y="347" fill="#a78bfa" font-size="10" font-family="system-ui" text-anchor="middle">White Gold</text>
  <rect x="74" y="362" width="56" height="26" rx="8" fill="#0d1520" stroke="#475569" stroke-width="1"/>
  <text x="102" y="379" fill="#64748b" font-size="10" font-family="system-ui" text-anchor="middle">Silver</text>

  <line x1="64" y1="400" x2="244" y2="400" stroke="#1e1a2e" stroke-width="1"/>

  <!-- Price range -->
  <text x="74" y="420" fill="#e2e8f0" font-size="11" font-weight="600" font-family="system-ui">Price Range</text>
  <text x="74" y="438" fill="#475569" font-size="9" font-family="system-ui">₹5,000 — ₹1,50,000</text>
  <rect x="74" y="446" width="162" height="6" rx="3" fill="#1e1a2e"/>
  <rect x="74" y="446" width="100" height="6" rx="3" fill="url(#gold1)"/>
  <circle cx="174" cy="449" r="7" fill="#d4af37" stroke="#08070f" stroke-width="2"/>

  <line x1="64" y1="472" x2="244" y2="472" stroke="#1e1a2e" stroke-width="1"/>

  <!-- Occasion -->
  <text x="74" y="490" fill="#e2e8f0" font-size="11" font-weight="600" font-family="system-ui">Occasion</text>
  <rect x="74" y="498" width="60" height="22" rx="11" fill="#1a1508" stroke="#d4af37" stroke-opacity="0.4" stroke-width="1"/>
  <text x="104" y="513" fill="#d4af37" font-size="9" font-family="system-ui" text-anchor="middle">Bridal</text>
  <rect x="140" y="498" width="58" height="22" rx="11" fill="#0d1520" stroke="#475569" stroke-width="1"/>
  <text x="169" y="513" fill="#64748b" font-size="9" font-family="system-ui" text-anchor="middle">Casual</text>
  <rect x="74" y="526" width="68" height="22" rx="11" fill="#0d1520" stroke="#475569" stroke-width="1"/>
  <text x="108" y="541" fill="#64748b" font-size="9" font-family="system-ui" text-anchor="middle">Festive</text>
  <rect x="148" y="526" width="68" height="22" rx="11" fill="#0d1520" stroke="#475569" stroke-width="1"/>
  <text x="182" y="541" fill="#64748b" font-size="9" font-family="system-ui" text-anchor="middle">Gift</text>

  <!-- Product grid (right) -->
  <text x="275" y="122" fill="#e2e8f0" font-size="13" font-weight="600" font-family="system-ui">Gold Rings Collection</text>
  <text x="275" y="138" fill="#475569" font-size="10" font-family="system-ui">48 products · Sorted by: Popularity</text>

  <!-- Product 1 — Featured (large) -->
  <rect x="275" y="150" width="290" height="390" rx="12" fill="url(#featured)" stroke="#2a2208" stroke-width="1.5"/>
  <rect x="285" y="160" width="270" height="220" rx="8" fill="#1c1508"/>
  <!-- Ring visual -->
  <ellipse cx="420" cy="240" rx="55" ry="20" fill="none" stroke="#d4af37" stroke-width="3" opacity="0.5"/>
  <ellipse cx="420" cy="240" rx="55" ry="55" fill="none" stroke="url(#gold1)" stroke-width="4" filter="url(#glow)"/>
  <ellipse cx="420" cy="185" rx="12" ry="8" fill="#d4af37" filter="url(#glow)"/>
  <ellipse cx="420" cy="185" rx="7" ry="5" fill="#60a5fa" opacity="0.8"/>
  <text x="370" y="350" fill="#475569" font-size="8" font-family="system-ui">Sapphire Solitaire Ring · 22K</text>

  <rect x="285" y="166" width="72" height="18" rx="9" fill="#d4af37" fill-opacity="0.2" stroke="#d4af37" stroke-opacity="0.5" stroke-width="1"/>
  <text x="321" y="179" fill="#d4af37" font-size="9" font-weight="700" font-family="system-ui" text-anchor="middle">✦ Featured</text>

  <text x="285" y="404" fill="#e2e8f0" font-size="13" font-weight="700" font-family="system-ui">Sapphire Solitaire</text>
  <text x="285" y="420" fill="#64748b" font-size="10" font-family="system-ui">22K Yellow Gold · 4.2g · BIS Hallmark</text>
  <!-- Stars -->
  <text x="285" y="440" fill="#d4af37" font-size="12">★★★★★</text>
  <text x="345" y="440" fill="#475569" font-size="10" font-family="system-ui"> (127)</text>
  <text x="285" y="462" fill="#d4af37" font-size="18" font-weight="800" font-family="system-ui">₹48,500</text>
  <!-- Thumbnails -->
  <rect x="285" y="472" width="52" height="40" rx="6" fill="#1c1508" stroke="#d4af37" stroke-opacity="0.6" stroke-width="1.5"/>
  <rect x="343" y="472" width="52" height="40" rx="6" fill="#1c1508"/>
  <rect x="401" y="472" width="52" height="40" rx="6" fill="#1c1508"/>
  <rect x="459" y="472" width="52" height="40" rx="6" fill="#1c1508"/>
  <rect x="517" y="472" width="38" height="40" rx="6" fill="#100d04" stroke="#1e1a0a" stroke-width="1"/>
  <text x="536" y="496" fill="#475569" font-size="14" text-anchor="middle">+6</text>

  <!-- Product 2 -->
  <rect x="578" y="150" width="194" height="196" rx="10" fill="url(#goldcard)" stroke="#1e1a0a" stroke-width="1"/>
  <rect x="588" y="160" width="174" height="130" rx="6" fill="#140f04"/>
  <ellipse cx="675" cy="215" rx="32" ry="32" fill="none" stroke="url(#gold1)" stroke-width="3"/>
  <ellipse cx="675" cy="183" rx="8" ry="5" fill="#f472b6" opacity="0.8"/>
  <text x="588" y="306" fill="#e2e8f0" font-size="11" font-weight="600" font-family="system-ui">Rose Gold Band</text>
  <text x="588" y="320" fill="#475569" font-size="9" font-family="system-ui">18K · 2.8g</text>
  <text x="588" y="336" fill="#d4af37" font-size="14" font-weight="700" font-family="system-ui">₹24,000</text>

  <!-- Product 3 -->
  <rect x="784" y="150" width="194" height="196" rx="10" fill="url(#goldcard)" stroke="#1e1a0a" stroke-width="1"/>
  <rect x="794" y="160" width="174" height="130" rx="6" fill="#140f04"/>
  <ellipse cx="881" cy="215" rx="28" ry="28" fill="none" stroke="url(#gold1)" stroke-width="3"/>
  <ellipse cx="881" cy="215" rx="14" ry="6" fill="none" stroke="#d4af37" stroke-width="1.5" opacity="0.6"/>
  <circle cx="881" cy="187" r="6" fill="#34d399" opacity="0.9"/>
  <text x="794" y="306" fill="#e2e8f0" font-size="11" font-weight="600" font-family="system-ui">Emerald Halo Ring</text>
  <text x="794" y="320" fill="#475569" font-size="9" font-family="system-ui">22K · 5.1g</text>
  <text x="794" y="336" fill="#d4af37" font-size="14" font-weight="700" font-family="system-ui">₹62,000</text>

  <!-- Product 4 -->
  <rect x="578" y="358" width="194" height="182" rx="10" fill="url(#goldcard)" stroke="#1e1a0a" stroke-width="1"/>
  <rect x="588" y="368" width="174" height="110" rx="6" fill="#140f04"/>
  <ellipse cx="675" cy="418" rx="30" ry="18" fill="none" stroke="url(#gold1)" stroke-width="2.5"/>
  <ellipse cx="675" cy="400" rx="30" ry="30" fill="none" stroke="url(#gold1)" stroke-width="2.5" opacity="0.4"/>
  <text x="588" y="496" fill="#e2e8f0" font-size="11" font-weight="600" font-family="system-ui">Classic Gold Band</text>
  <text x="588" y="510" fill="#475569" font-size="9" font-family="system-ui">22K · 3.4g · Hallmark</text>
  <text x="588" y="526" fill="#d4af37" font-size="14" font-weight="700" font-family="system-ui">₹18,500</text>

  <!-- Product 5 -->
  <rect x="784" y="358" width="194" height="182" rx="10" fill="url(#goldcard)" stroke="#2a2208" stroke-width="1.5"/>
  <rect x="794" y="358" width="194" height="4" rx="2" fill="url(#gold1)"/>
  <rect x="794" y="368" width="60" height="16" rx="8" fill="#d4af37" fill-opacity="0.2" stroke="#d4af37" stroke-opacity="0.5" stroke-width="1"/>
  <text x="824" y="380" fill="#d4af37" font-size="8" font-weight="700" font-family="system-ui" text-anchor="middle">Best Seller</text>
  <rect x="794" y="368" width="174" height="110" rx="6" fill="#1c1508"/>
  <ellipse cx="881" cy="418" rx="34" ry="34" fill="none" stroke="url(#gold1)" stroke-width="3.5"/>
  <circle cx="881" cy="384" r="10" fill="#fbbf24" opacity="0.9" filter="url(#glow)"/>
  <text x="794" y="496" fill="#e2e8f0" font-size="11" font-weight="600" font-family="system-ui">Diamond Cluster</text>
  <text x="794" y="510" fill="#475569" font-size="9" font-family="system-ui">18K · IGI Certified</text>
  <text x="794" y="526" fill="#d4af37" font-size="14" font-weight="700" font-family="system-ui">₹1,10,000</text>

  <!-- Add to cart area on featured product -->
  <rect x="285" y="506" width="270" height="36" rx="9" fill="url(#btn)"/>
  <text x="420" y="528" fill="#0a0910" font-size="12" font-weight="700" font-family="system-ui" text-anchor="middle">🛒  Add to Cart</text>

  <!-- Wishlist icon on cards -->
  <circle cx="553" cy="170" r="12" fill="#0a0910" stroke="#1e1a2e" stroke-width="1"/>
  <text x="553" y="175" fill="#e2e8f0" font-size="10" text-anchor="middle">♡</text>
  <circle cx="759" cy="170" r="12" fill="#0a0910" stroke="#1e1a2e" stroke-width="1"/>
  <text x="759" y="175" fill="#e2e8f0" font-size="10" text-anchor="middle">♡</text>

  <!-- Trust bar -->
  <rect x="55" y="554" width="1090" height="26" fill="#0c0a18" stroke="#1e1a2e" stroke-width="0.5"/>
  <text x="160" y="571" fill="#475569" font-size="9" font-family="system-ui" text-anchor="middle">✦ BIS Hallmarked</text>
  <text x="380" y="571" fill="#475569" font-size="9" font-family="system-ui" text-anchor="middle">✦ IGI / GIA Certified Diamonds</text>
  <text x="610" y="571" fill="#475569" font-size="9" font-family="system-ui" text-anchor="middle">✦ Free Insured Shipping</text>
  <text x="820" y="571" fill="#475569" font-size="9" font-family="system-ui" text-anchor="middle">✦ 30-Day Returns</text>
  <text x="1020" y="571" fill="#475569" font-size="9" font-family="system-ui" text-anchor="middle">✦ Lifetime Polishing</text>
</svg>
